<?xml version="1.0" encoding="UTF-8"?>
<!DOCTYPE svg PUBLIC "-//W3C//DTD SVG 1.1//EN" "http://www.w3.org/Graphics/SVG/1.1/DTD/svg11.dtd">
<!-- Creator: CorelDRAW -->
<svg xmlns="http://www.w3.org/2000/svg" xml:space="preserve" width="51px" height="40px" version="1.1" style="shape-rendering:geometricPrecision; text-rendering:geometricPrecision; image-rendering:optimizeQuality; fill-rule:evenodd; clip-rule:evenodd"
viewBox="0 0 169.38 132.93"
 xmlns:xlink="http://www.w3.org/1999/xlink"
 xmlns:xodm="http://www.corel.com/coreldraw/odm/2003">
 <defs>
  <style type="text/css">
   <![CDATA[
    .str0 {stroke:black;stroke-width:10.28;stroke-linecap:round;stroke-linejoin:round;stroke-miterlimit:22.9256}
    .fil0 {fill:none}
   ]]>
  </style>
 </defs>
 <g id="Слой_x0020_1">
  <metadata id="CorelCorpID_0Corel-Layer"/>
  <rect class="fil0" width="169.37" height="132.93"/>
  <g id="logo.svg">
   <path class="fil0 str0" d="M81.05 55.46c-4.91,0 -8.88,-3.97 -8.88,-8.87l0 -29.58c0,-4.91 3.97,-8.87 8.88,-8.87 4.9,0 8.87,3.96 8.87,8.87l0 29.58c0,4.9 -3.97,8.87 -8.87,8.87z"/>
   <path class="fil0 str0" d="M116.53 55.46l-8.87 0 0 -8.87c0,-4.91 3.97,-8.88 8.87,-8.88 4.91,0 8.88,3.97 8.88,8.88 0,4.9 -3.97,8.87 -8.88,8.87l0 0z"/>
   <path class="fil0 str0" d="M51.47 79.12c4.91,0 8.88,3.96 8.88,8.87l0 29.57c0,4.91 -3.97,8.88 -8.88,8.88 -4.9,0 -8.87,-3.97 -8.87,-8.88l0 -29.57c0,-4.91 3.97,-8.87 8.87,-8.87l0 0z"/>
   <path class="fil0 str0" d="M15.99 79.12l8.87 0 0 8.87c0,4.91 -3.96,8.87 -8.87,8.87 -4.91,0 -8.87,-3.96 -8.87,-8.87 0,-4.91 3.96,-8.87 8.87,-8.87z"/>
   <path class="fil0 str0" d="M78.09 82.07c0,-4.91 3.96,-8.87 8.87,-8.87l29.57 0c4.91,0 8.88,3.96 8.88,8.87 0,4.91 -3.97,8.87 -8.88,8.87l-29.57 0c-4.91,0 -8.87,-3.96 -8.87,-8.87l0 0z"/>
   <path class="fil0 str0" d="M86.96 108.69l-8.87 0 0 8.87c0,4.91 3.96,8.87 8.87,8.87 4.91,0 8.87,-3.96 8.87,-8.87 0,-4.91 -3.96,-8.87 -8.87,-8.87l0 0z"/>
   <path class="fil0 str0" d="M54.43 52.5c0,-4.91 -3.96,-8.87 -8.87,-8.87l-29.57 0c-4.91,0 -8.87,3.96 -8.87,8.87 0,4.91 3.96,8.87 8.87,8.87l29.57 0c4.91,0 8.87,-3.96 8.87,-8.87l0 0z"/>
   <path class="fil0 str0" d="M45.56 25.88l8.87 0 0 -8.87c0,-4.91 -3.96,-8.87 -8.87,-8.87 -4.91,0 -8.87,3.96 -8.87,8.87 0,4.91 3.96,8.87 8.87,8.87z"/>
  </g>
 </g>
</svg>
